# xmcd
#
# Track frame offsets:
#	150
#	17366
#	29992
#	44373
#	56243
#	63874
#	78525
#	93662
#	108664
#	124044
#
# Disc length: 1755 seconds
#
# Revision: 0
# Processed by: cddbd v1.5.2PL0 Copyright (c) Steve Scherf et al.
# Submitted via: EasyCDDAExtractor 16.0.6.1
#
DISCID=8906d90a
DTITLE=Συλλογικός δίσκος - Τραγούδια για τη Θεσσαλονίκη
DYEAR=1900
DGENRE=Λαϊκή
TTITLE0=Διονυσίου Στράτος-Βλαχάκη Μ. - Ο Σαλονικιός [Μ. Τόκα-Φ. Γράψα]
TTITLE1=Μπιθικώτσης Γρηγόρης-Γκίκα Β.-Καρανικόλας Ν. - Εγνατίας 406 [Γ. Μπιθικ
TTITLE1=ώτση-Κ. Βίρβου]
TTITLE2=Νομικός Νίκος-Κομνηνού Γ. - Μόνος γυρίζω στη Σαλονίκη [Μ. Τόκα-Σ. Αλιβ
TTITLE2=ιζάτου]
TTITLE3=Διαμάντη Λίτσα - Είμαι από τη Θεσσαλονίκη [Χ. Νικολόπουλου-Πυθαγόρα]
TTITLE4=Μπιθικώτσης Γρηγόρης-Τσιτσάνης Βασίλης - Μπαξέ τσιφλίκι [Β. Τσιτσάνη]
TTITLE5=Καζαντζίδης Στέλιος-Χιώτης Μανώλης - Θεσσαλονίκη μου [Μ. Χιώτη-Χ. Κολο
TTITLE5=κοτρώνη]
TTITLE6=Γιουλάκης Νίκος - Δραπέτης του Γεντί Κουλέ [Γ. Μητσάκη]
TTITLE7=Διονυσίου Στράτος-Θύμη Καίτη - Θεσσαλονίκη ξακουσμένη [Β. Τσιτσάνη]
TTITLE8=Γαβαλάς Πάνος-Γκίκα Βούλα - Μάγισσα Θεσσαλονίκη [Π. Γαβαλά-Φ. Ζησούλη]
TTITLE9=Μπιθικώτσης Γρηγόρης-Τσιτσάνης Β.-Πάνου Π. - Όμορφη Θεσσαλονίκη [Β. Τσ
TTITLE9=ιτσάνη]
EXTD=
EXTT0=
EXTT1=
EXTT2=
EXTT3=
EXTT4=
EXTT5=
EXTT6=
EXTT7=
EXTT8=
EXTT9=
PLAYORDER=
